<svg width="1936" height="1936" xmlns="http://www.w3.org/2000/svg" xmlns:xlink="http://www.w3.org/1999/xlink" xml:space="preserve" overflow="hidden"><g transform="translate(-958 -445)"><g><g><g><g><path d="M919.995 662.524C919.995 660.351 851.249 718.288 819.049 746.164 818.687 841.756 818.325 937.341 817.963 1032.93L916.743 1034.02C916.381 1005.42 916.019 976.812 915.657 948.205L960.162 905.844 1109.96 1041.62 1111.04 916.707 1031.8 843.929 1214.16 670.127 1077.4 670.127 916.743 817.856C916.381 766.08 919.995 664.697 919.995 662.524Z" fill-rule="evenodd" transform="matrix(1.00015 0 0 1 323.913 560.246)"/><path d="M1190.02 746.504 1192.19 1033.66 1287.57 1030.41 1287.57 818.019 1537.94 1042.33 1537.94 670.648 1439.31 669.565 1439.31 825.61 1274.57 670.648 1190.02 746.504Z" fill-rule="evenodd" transform="matrix(1.00015 0 0 1 323.913 560.246)"/><path d="M1322.09 892.516 1322.09 1032.39 1488.24 1032.39 1322.09 892.516Z" fill-rule="evenodd" transform="matrix(1.00015 0 0 1 323.913 560.246)"/><path d="M2385.72 672.607 2242.55 673.692 2147.11 757.254 2044.07 661.754 1975.73 722.527 2076.61 822.365 1972.48 914.613 1972.48 1043.75 2148.19 886.396 2320.65 1042.67 2319.56 914.613 2218.7 823.451 2385.72 672.607Z" fill-rule="evenodd" transform="matrix(1.00015 0 0 1 323.913 560.246)"/><path d="M1756.67 753.15C1726.36 753.875 1676.95 771.406 1676.59 849.673 1676.23 927.933 1719.84 951.251 1754.5 949.44 1789.16 947.637 1836.76 935.673 1832.41 845.335 1832.41 781.019 1786.99 752.426 1756.67 753.15ZM1755.04 665.307C1812.41 664.946 1927.7 696.056 1929.87 852.925 1930.96 1001.11 1812.41 1038.01 1757.21 1039.45 1702.02 1040.9 1579.48 1005.29 1579.12 855.09 1578.76 704.891 1697.67 665.669 1755.04 665.307Z" fill-rule="evenodd" transform="matrix(1.00015 0 0 1 323.913 560.246)"/></g></g></g></g></g></svg>